HIERARCHY
ROOT pelvis
{
  OFFSET 0 100 0
  CHANNELS 6 Xposition Yposition Zposition Zrotation Xrotation Yrotation
  JOINT pelvis_right_femur
  {
    OFFSET -10.78128 -3.44521 -0.5502486
    CHANNELS 3 Zrotation Xrotation Yrotation
    JOINT right_femur_tibia
    {
      OFFSET -0.8047443 -44.0398 -0.1307829
      CHANNELS 3 Zrotation Xrotation Yrotation
      JOINT right_tibia_foot
      {
        OFFSET 3.006224 -47.83518 -5
        CHANNELS 3 Zrotation Xrotation Yrotation
        End Site
        {
          OFFSET 0 -5 15
        }
      }
    }
  }
  JOINT pelvis_left_femur
  {
    OFFSET 10.78128 -3.44521 -0.5502486
    CHANNELS 3 Zrotation Xrotation Yrotation
    JOINT left_femur_tibia
    {
      OFFSET 0.8047443 -44.0398 -0.1307829
      CHANNELS 3 Zrotation Xrotation Yrotation
      JOINT left_tibia_foot
      {
        OFFSET -4.370144 -48.10324 -4.275266
        CHANNELS 3 Zrotation Xrotation Yrotation
        End Site
        {
          OFFSET 0 -5 15
        }
      }
    }
  }
  JOINT pelvis_spine1
  {
    OFFSET 0 6.468898 -3.129235
    CHANNELS 3 Zrotation Xrotation Yrotation
    JOINT spine1
    {
      OFFSET 0 23.15396 4.99043
      CHANNELS 3 Zrotation Xrotation Yrotation
      JOINT spine2
      {
        OFFSET 0 20.79997 -5.064912
        CHANNELS 3 Zrotation Xrotation Yrotation
        JOINT neck
        {
          OFFSET 0 14.38658 9.616178
          CHANNELS 3 Zrotation Xrotation Yrotation
          End Site
          {
            OFFSET 0 20 0
          }
        }
      }
      JOINT right_manubrium
      {
        OFFSET -5.722621 16.35077 3.967754
        CHANNELS 3 Zrotation Xrotation Yrotation
        JOINT right_clavicle
        {
          OFFSET -13.16364 1.694482 -4.693211
          CHANNELS 3 Zrotation Xrotation Yrotation
          JOINT right_humerus
          {
            OFFSET -28.5034 -0.3100689 -2.792744
            CHANNELS 3 Zrotation Xrotation Yrotation
            JOINT right_radius
            {
              OFFSET -25.15693 0.02248979 -1.271978
              CHANNELS 3 Zrotation Xrotation Yrotation
              End Site
              {
                OFFSET -15 0 0
              }
            }
          }
        }
      }
      JOINT left_manubrium
      {
        OFFSET 5.722621 16.35077 3.967754
        CHANNELS 3 Zrotation Xrotation Yrotation
        JOINT left_clavicle
        {
          OFFSET 13.16364 1.694482 -4.693211
          CHANNELS 3 Zrotation Xrotation Yrotation
          JOINT left_humerus
          {
            OFFSET 29.39168 -1.063119 -2.237045
            CHANNELS 3 Zrotation Xrotation Yrotation
            JOINT left_radius
            {
              OFFSET 24.59957 -0.9528479 0.9047498
              CHANNELS 3 Zrotation Xrotation Yrotation
              End Site
              {
                OFFSET 15 -0 -0
              }
            }
          }
        }
      }
    }
  }
}
MOTION
Frames: 17
Frame Time: 0.0416666666667
0 103.5113 0 -0.3299647 -3.333704 -0.186917 0.7600876 0.08200865 10.58408 -0 21.53014 -0 -8.377664 -13.43599 -1.337934 -3.909821 10.72029 -19.77932 -0 4.710274 -0 24.43228 -8.355731 26.30278 -0.8915361 -4.806483 6.918404 1.092311 8.975141 -6.624339 -1.806909 19.26098 12.3985 11.13574 -20.26205 3.478517 10.05181 -17.78834 13.04048 81.26222 34.20971 -17.11636 -0 0 13.95738 -3.221707 0.164318 8.566546 4.700827 -21.69873 -5.933905 -101.3647 32.64029 27.23882 0 0 -14.44225 6.435282 25.96834 9.895597
0.7029969 103.3913 0.7814301 -0.3541417 -3.421648 -0.3973213 0.8684436 -3.143335 10.44377 -0 27.78458 -0 -8.383952 -12.90334 -1.701629 -4.299583 11.43241 -19.28871 -0 4.552614 -0 23.92414 -9.40072 26.10933 -0.9953498 -4.216017 6.499279 1.1198 9.153756 -6.764021 -1.547057 19.39127 12.37312 10.9247 -21.25168 4.38207 9.760088 -18.04126 12.67944 81.0285 34.0976 -16.59736 -0 0 14.10633 -3.679795 0.2925052 8.441485 4.443106 -21.35269 -5.823615 -101.1336 32.37523 27.19697 0 0 -13.99641 6.275193 25.53497 10.1329
1.241468 103.2338 1.759415 -0.3789022 -3.502278 -0.5909269 1.061997 -6.769119 10.2072 -0 33.79358 -0 -8.447618 -11.99197 -2.378405 -4.68013 12.2206 -18.8259 -0 4.306853 -0 23.27707 -10.41241 25.91274 -1.286333 -3.602684 5.923176 1.137005 9.419244 -7.053341 -1.382808 19.43439 12.33392 10.7159 -22.12105 5.090522 9.36278 -18.17968 12.10576 80.92013 33.96214 -16.33828 -0 0 14.1017 -4.202979 0.4253849 8.249639 4.419662 -20.87472 -5.522868 -100.8411 32.16398 27.1886 0 0 -13.62772 6.10737 25.13687 10.43372
1.785632 103.135 2.920322 -0.3858096 -3.479007 -0.5434605 1.206719 -9.995444 9.737174 -0 38.4841 -0 -8.73427 -10.83101 -3.123501 -4.865609 13.29917 -18.36394 -0 3.866866 -0 22.43296 -11.43478 25.53189 -1.610814 -2.947226 5.225937 1.382239 9.52191 -7.514806 -1.346315 19.43745 12.29969 10.4845 -22.86489 5.611976 9.230693 -18.41764 11.56838 80.80794 33.84025 -16.14563 -0 0 13.89743 -4.746965 0.5978812 7.924151 4.466166 -20.45525 -5.337944 -100.5309 31.97884 27.10272 0 0 -13.43709 5.988154 24.76604 10.7714
2.250063 103.2237 4.321995 -0.3963023 -3.472479 -0.5360172 1.840998 -13.6205 8.847709 -0 40.78299 -0 -9.176983 -10.23411 -3.906733 -5.000821 14.37563 -17.93513 -0 3.419334 -0 21.44584 -12.40219 25.01892 -2.131969 -1.987295 4.638246 1.515215 9.683984 -7.920384 -1.199665 19.24082 12.11656 10.33008 -23.61314 5.953169 8.922124 -18.54418 11.00453 80.84773 33.76111 -16.21363 -0 0 13.45009 -5.283083 0.8186224 7.492454 4.728146 -20.2055 -4.877143 -100.1328 31.79178 26.92602 0 0 -13.36593 5.857257 24.32336 11.08186
2.62607 103.2494 5.856244 -0.3982444 -3.419439 -0.4213927 2.395376 -16.78396 7.421574 -0 40.54003 -0 -9.606837 -9.671151 -4.410221 -5.106296 15.53807 -17.48191 -0 3.043965 -0 20.35645 -13.45061 24.431 -2.508715 -0.9159413 4.274797 1.842644 9.677268 -8.220914 -0.8052045 19.0312 11.9317 10.36713 -24.31783 6.452051 8.460471 -18.41088 10.51674 81.24508 33.74294 -16.62849 -0 0 12.73642 -5.667801 1.137165 6.938715 5.053686 -20.25859 -4.537697 -99.58039 31.63579 26.3602 0 0 -13.69027 5.789986 23.84534 11.27421
2.938659 103.0631 7.565264 -0.3932564 -3.332311 -0.227132 2.973776 -20.03312 5.886503 -0 37.97578 -0 -9.919254 -8.68948 -4.469259 -5.140237 16.85116 -17.04306 -0 2.857387 -0 19.23566 -14.67659 23.7882 -2.932377 0.2537093 4.097824 2.178472 9.5599 -8.423772 -0.4904096 18.78672 11.67698 10.38987 -24.94453 6.708817 8.025963 -18.1165 10.26498 81.91571 33.80586 -17.267 -0 0 11.77394 -5.846344 1.576825 6.269457 5.528897 -20.56217 -4.317222 -98.80908 31.52014 25.41376 0 0 -14.42425 5.793283 23.34198 11.31328
3.236546 102.8268 9.705694 -0.3794692 -3.206078 0.05962958 3.476388 -22.84424 4.757377 -0 33.1972 -0 -10.00543 -7.586518 -4.127709 -5.286484 17.9153 -16.50047 -0 3.008112 -0 18.31026 -15.81524 22.99798 -3.327003 1.449766 3.943209 2.459015 9.474677 -8.659544 -0.2470157 18.5112 11.3552 10.40612 -25.50077 6.719997 7.550865 -17.72649 10.21619 82.74948 33.97383 -18.08273 -0 0 10.48804 -5.862852 2.152906 5.457233 6.044084 -20.95821 -4.257177 -97.86753 31.41921 24.26985 0 0 -15.41378 5.82766 22.8132 11.22303
3.517041 102.2906 12.05185 -0.3523982 -3.011383 0.5077722 3.880719 -25.23357 3.941233 -0 27.48316 -0 -10.0414 -6.42597 -3.684473 -5.346183 18.79267 -16.1232 -0 3.561623 -0 17.33887 -17.03418 22.11292 -3.510217 2.624168 3.832257 2.650509 9.398521 -8.805053 -0.008098926 18.33221 11.07973 10.42771 -26.01343 6.787815 6.993236 -17.22101 10.22068 83.86079 34.1292 -18.9765 -0 0 9.18244 -5.65949 2.769455 4.673312 6.467248 -21.47902 -4.217263 -96.74337 31.24781 22.86617 0 0 -16.60057 5.97405 22.26501 11.0438
3.718823 101.5657 14.88414 -0.3075164 -2.712536 1.201176 4.130598 -27.19283 3.298796 -0 22.08256 -0 -10.19776 -5.396397 -3.465072 -5.529386 19.85345 -15.69587 -0 4.799765 -0 16.23856 -18.21926 21.10978 -3.512758 3.481855 3.737985 2.784241 9.254498 -8.895676 0.0507508 18.29595 10.88458 10.37221 -26.3428 6.742501 6.546975 -16.70585 10.18805 85.11356 34.22086 -19.88565 -0 0 8.002416 -5.38104 3.398034 4.08068 6.808796 -22.04291 -4.0306 -95.51128 30.9788 21.40171 0 0 -17.79557 6.173136 21.67632 10.8327
3.914299 100.7438 18.28916 -0.266705 -2.428582 1.860941 4.509703 -28.75014 2.866384 -0 17.92573 -0 -10.53614 -4.581709 -3.550842 -5.711892 20.60871 -15.28579 -0 6.764458 -0 14.83892 -19.11755 19.83725 -3.36878 4.012116 3.606207 2.862587 9.07425 -9.004788 0.02124903 18.31516 10.79267 10.30874 -26.54799 6.685433 6.164745 -16.21752 10.16002 86.385 34.27567 -20.77965 -0 0 6.908025 -5.110579 4.034387 3.64626 6.936013 -22.42103 -3.844373 -94.41351 30.57799 20.19811 0 0 -18.75619 6.358306 21.03471 10.66542
4.063617 100.2258 22.07203 -0.196306 -1.931394 3.01895 4.71975 -29.1052 2.485849 -0 15.97776 -0 -11.12056 -4.08201 -3.832072 -5.489906 21.30931 -14.76597 -0 9.296429 -0 12.95196 -19.36041 18.02234 -3.165997 4.443122 3.237501 2.90073 8.920733 -9.223226 -0.04586192 18.36746 10.71121 10.23055 -26.69113 6.564664 6.005086 -15.92829 10.25814 87.50756 34.36521 -21.44506 -0 0 5.858155 -4.921158 4.685324 3.341806 6.770129 -22.74885 -3.823701 -93.42047 30.09543 19.21962 0 0 -19.39414 6.47471 20.34347 10.58757
4.212008 99.85436 26.51759 -0.1293178 -1.396954 4.261797 4.805456 -27.91395 2.352504 -0 16.38132 -0 -11.90951 -3.700633 -4.129422 -5.201597 21.41565 -14.18929 -0 13.15022 -0 10.59658 -18.57837 15.81123 -2.824362 4.300654 2.615199 2.921019 8.79148 -9.679305 -0.216468 18.38448 10.66115 10.02508 -26.65148 6.389676 5.760077 -15.63129 10.12811 88.46623 34.3979 -22.03564 -0 0 5.149113 -4.959822 5.327811 3.286131 6.460458 -22.71278 -3.831485 -92.82608 29.53161 18.7883 0 0 -19.65165 6.458263 19.61169 10.62959
4.465523 99.84536 31.66302 -0.08408919 -0.9806534 5.228152 5.094641 -26.33611 2.388891 -0 17.78284 -0 -12.77686 -3.381339 -4.436335 -5.082837 20.91973 -13.45712 -0 18.79317 -0 7.898618 -16.36393 13.39055 -2.296844 3.847057 2.117434 2.987463 8.758301 -10.05565 -0.47286 18.25988 10.62775 9.693428 -26.47987 6.166023 5.489383 -15.2187 10.03151 89.18234 34.42322 -22.51929 -0 0 4.672526 -5.277859 5.963283 3.454649 6.002651 -22.32266 -3.924559 -92.73232 28.92133 18.88582 0 0 -19.5906 6.252296 18.84156 10.80111
4.732358 100.2472 37.19572 -0.07684582 -0.8985045 5.418267 5.172793 -23.95269 2.597405 -0 19.18592 -0 -13.54914 -3.802677 -4.755088 -5.350096 19.42667 -12.56152 -0 26.75345 -0 5.153403 -12.56354 11.02958 -1.772057 3.268371 1.969624 3.050082 8.842739 -10.16233 -0.7260693 18.34873 10.54769 9.307156 -25.97789 5.869545 5.239159 -15.05631 10.08976 89.5283 34.52517 -22.49031 -0 0 4.589126 -5.830622 6.597184 3.79243 5.509767 -21.74625 -3.962045 -92.90458 28.28982 19.29771 0 0 -19.34129 5.892595 18.05188 11.08977
5.056813 100.8492 42.58144 -0.1110009 -1.196805 4.724804 5.49561 -20.60189 2.739003 -0 19.56061 -0 -14.20763 -5.04413 -4.887854 -5.652687 15.84217 -11.63546 -0 36.61621 -0 3.077664 -8.313462 9.258784 -1.257951 2.91449 2.436896 3.017211 9.127708 -9.790127 -0.8716449 18.65059 10.39711 8.954354 -25.21005 5.557477 5.021138 -15.20838 10.49443 89.36382 34.75574 -21.85511 -0 0 4.761472 -6.617362 7.236091 4.281535 4.952165 -21.27684 -3.938952 -93.00776 27.67498 19.74516 0 0 -18.98909 5.4058 17.24482 11.4226
5.235031 101.4415 48.02051 -0.1588212 -1.569912 3.855891 5.8297 -16.4645 2.894796 -0 18.9038 -0 -14.58782 -6.598935 -4.848617 -6.01975 10.63498 -10.40959 -0 47.14178 -0 1.386218 -4.073975 8.385319 -0.9636403 2.348465 3.509299 3.02143 9.398266 -9.045428 -0.9518809 19.08772 10.14081 8.605561 -24.32661 5.178042 4.947404 -15.49704 11.03156 88.69173 34.98985 -20.70904 -0 0 5.329341 -7.786706 7.791501 5.017865 4.505941 -21.04571 -3.688671 -92.92942 27.09743 20.10184 0 0 -18.72684 4.89212 16.47094 11.77219
